<svg id="visual" viewBox="0 0 900 600" width="900" height="600" xmlns="http://www.w3.org/2000/svg" xmlns:xlink="http://www.w3.org/1999/xlink" version="1.1"><rect x="0" y="0" width="900" height="600" fill="#71c373"></rect><defs><linearGradient id="grad1_0" x1="33.3%" y1="0%" x2="100%" y2="100%"><stop offset="20%" stop-color="#ffffff" stop-opacity="1"></stop><stop offset="80%" stop-color="#ffffff" stop-opacity="1"></stop></linearGradient></defs><defs><linearGradient id="grad1_1" x1="33.3%" y1="0%" x2="100%" y2="100%"><stop offset="20%" stop-color="#ffffff" stop-opacity="1"></stop><stop offset="80%" stop-color="#bae2b8" stop-opacity="1"></stop></linearGradient></defs><defs><linearGradient id="grad1_2" x1="33.3%" y1="0%" x2="100%" y2="100%"><stop offset="20%" stop-color="#71c373" stop-opacity="1"></stop><stop offset="80%" stop-color="#bae2b8" stop-opacity="1"></stop></linearGradient></defs><defs><linearGradient id="grad2_0" x1="0%" y1="0%" x2="66.7%" y2="100%"><stop offset="20%" stop-color="#ffffff" stop-opacity="1"></stop><stop offset="80%" stop-color="#ffffff" stop-opacity="1"></stop></linearGradient></defs><defs><linearGradient id="grad2_1" x1="0%" y1="0%" x2="66.7%" y2="100%"><stop offset="20%" stop-color="#bae2b8" stop-opacity="1"></stop><stop offset="80%" stop-color="#ffffff" stop-opacity="1"></stop></linearGradient></defs><defs><linearGradient id="grad2_2" x1="0%" y1="0%" x2="66.7%" y2="100%"><stop offset="20%" stop-color="#bae2b8" stop-opacity="1"></stop><stop offset="80%" stop-color="#71c373" stop-opacity="1"></stop></linearGradient></defs><g transform="translate(900, 0)"><path d="M0 297.5C-27.8 266.4 -55.6 235.4 -93.4 225.4C-131.1 215.4 -178.9 226.5 -210.3 210.3C-241.8 194.2 -257 150.9 -268.8 111.4C-280.7 71.8 -289.1 35.9 -297.5 0L0 0Z" fill="#97d295"></path><path d="M0 198.3C-18.5 177.6 -37.1 156.9 -62.2 150.3C-87.4 143.6 -119.2 151 -140.2 140.2C-161.2 129.5 -171.4 100.6 -179.2 74.2C-187.1 47.9 -192.7 23.9 -198.3 0L0 0Z" fill="#ddf0db"></path><path d="M0 99.2C-9.3 88.8 -18.5 78.5 -31.1 75.1C-43.7 71.8 -59.6 75.5 -70.1 70.1C-80.6 64.7 -85.7 50.3 -89.6 37.1C-93.6 23.9 -96.4 12 -99.2 0L0 0Z" fill="#ffffff"></path></g><g transform="translate(0, 600)"><path d="M0 -297.5C36 -287.9 71.9 -278.3 110.2 -266.1C148.5 -253.9 189.1 -239.1 210.3 -210.3C231.6 -181.6 233.5 -138.8 244.8 -101.4C256.1 -64 276.8 -32 297.5 0L0 0Z" fill="#97d295"></path><path d="M0 -198.3C24 -191.9 48 -185.5 73.5 -177.4C99 -169.3 126 -159.4 140.2 -140.2C154.4 -121 155.7 -92.5 163.2 -67.6C170.8 -42.7 184.5 -21.3 198.3 0L0 0Z" fill="#ddf0db"></path><path d="M0 -99.2C12 -96 24 -92.8 36.7 -88.7C49.5 -84.6 63 -79.7 70.1 -70.1C77.2 -60.5 77.8 -46.3 81.6 -33.8C85.4 -21.3 92.3 -10.7 99.2 0L0 0Z" fill="#ffffff"></path></g></svg>