<svg id="visual" viewBox="0 0 900 600" width="900" height="600" xmlns="http://www.w3.org/2000/svg" xmlns:xlink="http://www.w3.org/1999/xlink" version="1.1"><path d="M0 97L37.5 94C75 91 150 85 225 89C300 93 375 107 450 105C525 103 600 85 675 82C750 79 825 91 862.5 97L900 103L900 0L862.5 0C825 0 750 0 675 0C600 0 525 0 450 0C375 0 300 0 225 0C150 0 75 0 37.5 0L0 0Z" fill="#9cd79f"></path><path d="M0 247L37.5 243C75 239 150 231 225 235C300 239 375 255 450 247C525 239 600 207 675 195C750 183 825 191 862.5 195L900 199L900 101L862.5 95C825 89 750 77 675 80C600 83 525 101 450 103C375 105 300 91 225 87C150 83 75 89 37.5 92L0 95Z" fill="#7fca82"></path><path d="M0 463L37.5 447C75 431 150 399 225 388C300 377 375 387 450 387C525 387 600 377 675 385C750 393 825 419 862.5 432L900 445L900 197L862.5 193C825 189 750 181 675 193C600 205 525 237 450 245C375 253 300 237 225 233C150 229 75 237 37.5 241L0 245Z" fill="#66b268"></path><path d="M0 601L37.5 601C75 601 150 601 225 601C300 601 375 601 450 601C525 601 600 601 675 601C750 601 825 601 862.5 601L900 601L900 443L862.5 430C825 417 750 391 675 383C600 375 525 385 450 385C375 385 300 375 225 386C150 397 75 429 37.5 445L0 461Z" fill="#519152"></path></svg>